<svg viewBox="0 0 55 55" fill="none" xmlns="http://www.w3.org/2000/svg">
<path d="M23.6039 22.0071L38.1286 13.615L23.6039 5.23769L9.15262 13.6297L23.6039 22.0071ZM15.1092 16.2559L23.6039 11.341L32.1133 16.2559L23.6039 21.1561L15.1092 16.2559ZM36.6614 13.615L32.8469 15.8304L23.6039 10.49L14.3756 15.8451L10.6198 13.6297L23.6626 6.1033L36.6614 13.615Z" fill="#f3f3f3"/>
<path d="M23.6039 0L0.525849 13.3216L0.349792 13.439V51.4965L5.27937 54.2841L10.0036 51.5552L10.1943 51.4378V24.8533L23.6039 32.5851L37.0282 24.8533V51.4818L41.9431 54.2841L46.858 51.4965V13.439L23.6039 0ZM45.831 13.6444L23.6039 26.4085L1.46482 13.6444L23.6039 0.850939L45.831 13.6444ZM9.46071 51.071L5.64616 53.2717V22.2271L9.47538 24.4278L9.46071 51.071ZM37.7618 24.4278L41.591 22.2271V53.2571L37.7765 51.0564L37.7618 24.4278ZM42.3099 53.2571V20.9801L23.6039 31.7488L4.89792 20.9507V53.2277L1.08336 51.027V14.2606L23.6039 27.2741L46.1391 14.2606V51.071L42.3099 53.2571Z" fill="#f3f3f3"/>
</svg>
