<svg xmlns="http://www.w3.org/2000/svg" viewBox="0 0 148.19 173.05"><defs><style>.cls-1{fill:#fff;}</style></defs><title>Asset 2</title><g id="Layer_2" data-name="Layer 2"><g id="Layer_1-2" data-name="Layer 1"><path class="cls-1" d="M74.1,70.14l46.24-26.7L74.1,16.74,27.85,43.44ZM47,51.81,74.1,36.18l27.07,15.63L74.1,67.44Zm68.65-8.37-12.16,7-29.41-17-29.41,17-12.16-7,41.57-24Z"/><path class="cls-1" d="M74.1,0,.58,42.45,0,42.79,0,164l15.67,9,15.05-8.71.58-.35V79.16L74.1,103.81l42.73-24.64V164l15.67,9,15.65-9,0-121.22Zm70.53,43.45L74.1,84.18,3.54,43.44,74.1,2.7ZM29,162.66l-12.13,7,0-98.88,12.16,7Zm90.16-84.84,12.18-7,0,98.86-12.16-7Zm14.5,91.84V66.75L74.1,101.12,14.51,66.75l0,102.93-12.16-7,0-117.24L74.1,86.87l71.76-41.43,0,117.24Z"/></g></g></svg>