<svg width="30" height="30" fill="none" xmlns="http://www.w3.org/2000/svg"><path d="M11.15 24.477a.5.5 0 10-.3-.954l.3.954zm-7.273-4.96l-.484-.128-.254.968.484.127.254-.968zM18.5 29v.5h1V29h-1zm-.375-9.625l-.053-.497a.5.5 0 00-.3.852l.353-.355zM25 11.825h.5v-.002l-.5.002zm-1.666-4.012l-.466-.182a.5.5 0 00.112.535l.354-.354zm-.1-4.034l.456-.204a.5.5 0 00-.319-.277l-.137.48zm-4.345 1.583l-.126.484a.5.5 0 00.397-.064l-.271-.42zm-7.778 0l-.271.42a.5.5 0 00.397.064l-.126-.484zM6.766 3.78l-.137-.481a.5.5 0 00-.32.277l.457.204zm-.1 4.034l.354.353a.5.5 0 00.112-.535l-.466.181zM5 11.857h.5v-.002l-.5.002zm6.875 7.517l.353.354a.5.5 0 00-.294-.85l-.059.496zM11 22h.5l-.001-.037L11 22zm-.5 7v.5h1V29h-1zm.35-5.477c-1.273.401-2.15.378-2.785.168-.634-.209-1.096-.626-1.499-1.152-.203-.264-.385-.549-.568-.844-.178-.288-.362-.598-.55-.876-.372-.548-.847-1.113-1.571-1.303l-.254.968c.347.09.645.378.996.896.173.255.338.532.528.84.186.302.39.622.626.928.472.615 1.085 1.198 1.979 1.493.891.294 1.992.279 3.398-.164l-.3-.954zm8.65-1.648c0-.63-.03-1.14-.182-1.598-.159-.476-.434-.853-.84-1.257l-.705.71c.342.34.504.587.596.863.098.293.131.662.131 1.282h1zm-1.322-2.003c1.776-.19 3.62-.632 5.02-1.844 1.422-1.23 2.302-3.18 2.302-6.203h-1c0 2.82-.813 4.457-1.956 5.447-1.166 1.01-2.759 1.422-4.472 1.606l.106.994zm7.322-8.049a6.209 6.209 0 00-1.812-4.364l-.708.707a5.209 5.209 0 011.52 3.66l1-.003zm-1.7-3.83a5.74 5.74 0 00.387-2.22l-1 .025a4.739 4.739 0 01-.32 1.833l.933.363zm.387-2.22a5.74 5.74 0 00-.497-2.198l-.913.408c.256.572.395 1.189.41 1.815l1-.025zm-.953-1.994l.136-.481-.003-.001-.004-.001a.544.544 0 00-.038-.01 2.025 2.025 0 00-.33-.036 3.848 3.848 0 00-.901.097c-.78.167-1.922.591-3.477 1.595l.543.84c1.477-.954 2.508-1.321 3.143-1.457.317-.068.536-.078.665-.074.064.001.107.006.128.01l.015.002h-.003l-.005-.002H23.1l-.002-.001c-.001 0-.002 0 .136-.481zm-4.22 1.1a15.918 15.918 0 00-8.029 0l.252.967a14.917 14.917 0 017.526 0l.252-.967zm-7.631.063C9.826 3.938 8.684 3.514 7.905 3.347a3.847 3.847 0 00-.9-.096 2.023 2.023 0 00-.358.042.773.773 0 00-.01.003h-.005l-.002.001H6.63s-.001.001.136.482l.137.48-.001.001H6.9l-.003.001a.281.281 0 01.008 0c.02-.004.063-.009.127-.01.128-.004.347.006.665.074.635.136 1.665.503 3.143 1.458l.543-.84zM6.31 3.575a5.74 5.74 0 00-.497 2.198l1 .025a4.74 4.74 0 01.41-1.815l-.913-.408zm-.497 2.198a5.74 5.74 0 00.387 2.22l.932-.362a4.74 4.74 0 01-.32-1.833l-1-.025zm.5 1.686a6.208 6.208 0 00-1.345 2.02l.925.38A5.207 5.207 0 017.02 8.166l-.708-.707zM4.967 9.48a6.207 6.207 0 00-.468 2.38l1-.003a5.207 5.207 0 01.393-1.997l-.925-.38zM4.5 11.858c0 3.002.881 4.934 2.303 6.156 1.399 1.202 3.242 1.646 5.013 1.858l.118-.994c-1.717-.205-3.312-.62-4.479-1.622-1.143-.983-1.955-2.601-1.955-5.399h-1zm7.022 7.163c-.869.866-1.103 1.892-1.02 3.016l.997-.074c-.068-.919.12-1.627.729-2.234l-.706-.708zM10.5 22v7h1v-7h-1zm9 7v-3h-1v3h1zm0-3v-4.125h-1V26h1z" fill="#00527D"/></svg>