<svg width="30" height="30" fill="none" xmlns="http://www.w3.org/2000/svg"><path d="M5.447 16.25c.678 0 1.228-.56 1.228-1.25s-.55-1.25-1.228-1.25c-.678 0-1.228.56-1.228 1.25s.55 1.25 1.228 1.25zM25.163 13.75H10.284c-.637 0-1.154.526-1.154 1.175v.15c0 .649.517 1.175 1.154 1.175h14.88c.636 0 1.153-.526 1.153-1.175v-.15c0-.649-.517-1.175-1.154-1.175zM25.163 20H5.373c-.637 0-1.154.526-1.154 1.175v.15c0 .649.517 1.175 1.154 1.175h19.79c.637 0 1.154-.526 1.154-1.175v-.15c0-.649-.517-1.175-1.154-1.175zM25.163 7.5H5.373c-.637 0-1.154.526-1.154 1.175v.15c0 .649.517 1.175 1.154 1.175h19.79c.637 0 1.154-.526 1.154-1.175v-.15c0-.649-.517-1.175-1.154-1.175z" fill="#fff"/></svg>