<svg width="50" height="50" fill="none" xmlns="http://www.w3.org/2000/svg"><path d="M25 45l-.432.252a.5.5 0 00.864 0L25 45zM38.333 5l.434.248a.5.5 0 00-.434-.748V5zM25 28.333l-.434.248a.5.5 0 00.868 0L25 28.333zM11.667 5v-.5a.5.5 0 00-.434.748L11.666 5zm10 0l.447-.224-.138-.276h-.31V5zM25 11.667l-.447.223a.5.5 0 00.894 0L25 11.667zM28.333 5v-.5h-.309l-.138.276.447.224zm-27.098.252l23.333 40 .864-.504-23.333-40-.864.504zm24.197 40l23.333-40-.864-.504-23.333 40 .864.504zm12.467-40.5L24.566 28.085l.868.496L38.767 5.248l-.868-.496zM25.434 28.085L12.101 4.752l-.869.496 13.334 23.333.868-.496zM11.667 5.5h10v-1h-10v1zm9.553-.276l3.333 6.666.894-.447-3.333-6.667-.895.448zm4.227 6.666l3.334-6.666-.895-.448-3.333 6.667.894.447zm2.886-6.39h10v-1h-10v1z" fill="#F3F3F3"/></svg>